<svg width="388" height="246" viewBox="0 0 388 246" fill="none" xmlns="http://www.w3.org/2000/svg">
<mask id="path-1-inside-1_463_189" fill="white">
<path fill-rule="evenodd" clip-rule="evenodd" d="M1.00008 100.542C0.778613 99.4617 0.661379 98.3341 0.661379 97.1664L0.661383 17.3338C0.661383 4.8388 14.0843 -3.05942 25.007 3.00855L62.7933 24.0001H348C370.091 24.0001 388 41.9088 388 64.0001V206C388 228.092 370.091 246 348 246H41.0001C18.9087 246 1.00008 228.092 1.00008 206V100.542Z"/>
</mask>
<path d="M1.00008 100.542H2.00008V100.44L1.97969 100.341L1.00008 100.542ZM0.661379 97.1664H1.66138H0.661379ZM0.661383 17.3338H-0.338617H0.661383ZM25.007 3.00855L24.5214 3.88271L25.007 3.00855ZM62.7933 24.0001L62.3076 24.8743L62.5341 25.0001H62.7933V24.0001ZM1.97969 100.341C1.77184 99.3272 1.66138 98.267 1.66138 97.1664H-0.338621C-0.338621 98.4013 -0.214617 99.5962 0.0204772 100.742L1.97969 100.341ZM1.66138 97.1664L1.66138 17.3338H-0.338617L-0.338621 97.1664H1.66138ZM1.66138 17.3338C1.66138 5.60128 14.2652 -1.81498 24.5214 3.88271L25.4927 2.13438C13.9034 -4.30387 -0.338616 4.07632 -0.338617 17.3338H1.66138ZM24.5214 3.88271L62.3076 24.8743L63.2789 23.126L25.4927 2.13438L24.5214 3.88271ZM62.7933 25.0001H348V23.0001H62.7933V25.0001ZM348 25.0001C369.539 25.0001 387 42.461 387 64.0001H389C389 41.3565 370.644 23.0001 348 23.0001V25.0001ZM387 64.0001V206H389V64.0001H387ZM387 206C387 227.539 369.539 245 348 245V247C370.644 247 389 228.644 389 206H387ZM348 245H41.0001V247H348V245ZM41.0001 245C19.461 245 2.00008 227.539 2.00008 206H8.39233e-05C8.39233e-05 228.644 18.3564 247 41.0001 247V245ZM2.00008 206V100.542H8.39233e-05V206H2.00008Z" fill="black" mask="url(#path-1-inside-1_463_189)"/>
</svg>
